<svg xmlns="http://www.w3.org/2000/svg" width="256" height="256" viewBox="0 0 256 256" role="img" aria-label="Logo">
  <defs>
    <radialGradient id="g" cx="35%" cy="30%" r="80%">
      <stop offset="0%" stop-color="#ffffff" stop-opacity="0.95"/>
      <stop offset="45%" stop-color="#f43f5e" stop-opacity="0.95"/>
      <stop offset="100%" stop-color="#3b0764" stop-opacity="1"/>
    </radialGradient>
    <filter id="s" x="-20%" y="-20%" width="140%" height="140%">
      <feDropShadow dx="0" dy="10" stdDeviation="10" flood-color="#000" flood-opacity="0.35"/>
    </filter>
  </defs>
  <rect width="256" height="256" rx="128" fill="url(#g)" filter="url(#s)"/>
  <path d="M70 140c14-44 42-66 84-66 12 0 25 2 39 7-18 6-31 15-40 27 18 0 33 5 46 15-15 44-45 66-90 66-16 0-29-3-39-7 20-5 34-14 44-27-18 0-33-5-44-15z"
        fill="#fff" fill-opacity="0.92"/>
</svg>

